# xmcd
#
# Track frame offsets:
#	150
#	12181
#	24792
#	38393
#	48453
#	59819
#	75478
#	85463
#	95826
#	107056
#	120033
#	134320
#	148761
#	159896
#	174087
#	187812
#	201200
#	215477
#	227700
#	239579
#	250656
#	261720
#	272551
#	285188
#	295638
#	313322
#	326023
#
# Disc length: 4529 seconds
#
# Revision: 1
# Processed by: cddbd v1.5.2PL0 Copyright (c) Steve Scherf et al.
# Submitted via: audiograbber 1.83.01
#
DISCID=7411af1b
DTITLE=Jimmy Witherspoon - Urban Blues Singing Legend - CD 3
DYEAR=2006
DGENRE=Blues
TTITLE0=Who's Been Jivin' You
TTITLE1=Rain, Rain, Rain
TTITLE2=When I Had My Money
TTITLE3=Doctor Blues
TTITLE4=Big Fine Girl
TTITLE5=No Rollin' Blues
TTITLE6=Drinkin' Beer (Have a Ball)
TTITLE7=Better Love, Next Time (part 1)
TTITLE8=Better Love, Next Time (part 2)
TTITLE9=Don't Ever Move a Woman Into Your House
TTITLE10=Hard Workin' Blues
TTITLE11=Falling By Degrees
TTITLE12=New Orleans Woman
TTITLE13=I'm Goin' Around in Circles
TTITLE14=Just a Country Boy
TTITLE15=There Ain't Nothin' Better
TTITLE16=Love and Friendship
TTITLE17=Once, There Lived a Fool
TTITLE18=I'm Just Wonderin' (part 1)
TTITLE19=I'm Just Wonderin' (part 2)
TTITLE20=I'm Just a Ladies Man
TTITLE21=You Can't Kiss a Dream Goodnight
TTITLE22=Practice What You Preach
TTITLE23=I Gotta Gal Lives Up on the Hill
TTITLE24=Ain't Nobody's Business
TTITLE25=Real Ugly Woman
TTITLE26=Give My Heart Another Break
EXTD=JSP 7778 - CD 3
EXTT0=
EXTT1=
EXTT2=
EXTT3=
EXTT4=
EXTT5=
EXTT6=
EXTT7=
EXTT8=
EXTT9=
EXTT10=
EXTT11=
EXTT12=
EXTT13=
EXTT14=
EXTT15=
EXTT16=
EXTT17=
EXTT18=
EXTT19=
EXTT20=
EXTT21=
EXTT22=
EXTT23=
EXTT24=
EXTT25=
EXTT26=
PLAYORDER=
